<svg xmlns="http://www.w3.org/2000/svg" viewBox="0 0 200 60" width="200" height="60">
  <style>
    .coral-text { fill: #FFFFFF; font-family: 'Arial', sans-serif; font-weight: bold; }
    .coral-icon { fill: #FFFFFF; }
  </style>
  <g>
    <!-- Coral Icon -->
    <path class="coral-icon" d="M40,15 C31.716,15 25,21.716 25,30 C25,38.284 31.716,45 40,45 C48.284,45 55,38.284 55,30 C55,21.716 48.284,15 40,15 Z M40,40 C34.477,40 30,35.523 30,30 C30,24.477 34.477,20 40,20 C45.523,20 50,24.477 50,30 C50,35.523 45.523,40 40,40 Z"/>
    <path class="coral-icon" d="M40,25 C37.239,25 35,27.239 35,30 C35,32.761 37.239,35 40,35 C42.761,35 45,32.761 45,30 C45,27.239 42.761,25 40,25 Z"/>

    <!-- Coral Text -->
    <text class="coral-text" x="65" y="38" font-size="24">Orange Botswana</text>
  </g>
</svg>
